# xmcd
#
# Track frame offsets: 
#        150
#        28337
#        57065
#        86500
#        105340
#        133660
#        177427
#
# Disc length: 2680 seconds
#
# Revision: 2
# Processed by: cddbd v1.5.2PL0 Copyright (c) Steve Scherf et al.
# Submitted via: ExactAudioCopyFreeDBPlugin 1.0
#
DISCID=550a7607
DTITLE=Remixes by 2Kool (Azeemuddin) - Kumar Sanu - Love 2 Love (Audio
DTITLE=rec-ARCD-2088)
DYEAR=1995
DGENRE=Bollywood Remix
TTITLE0=Kumar Sanu - Ek Ladki Ko Dekha
TTITLE1=Kumar Sanu and Nephie - Jaati Hoon Mein
TTITLE2=Kumar Sanu and Nephie - Churake Dil Mera
TTITLE3=Kumar Sanu and Nephie - Dheere Dheere Se Meri Zindagi
TTITLE4=Kumar Sanu - Ek Ladki Ko Dekha (Extended Club Mix)
TTITLE5=Kumar Sanu and Nephie - Jaati Hoon Mein (Extended Club Mix)
TTITLE6=Kumar Sanu and Nephie - Dheere Dheere Se Meri Zindagi (Dub Mix)
EXTD=YEAR: 1995
EXTT0=
EXTT1=
EXTT2=
EXTT3=
EXTT4=
EXTT5=
EXTT6=
PLAYORDER=
